name Walk7.mot
datacolumns 19
datarows 20
range 2.73600000 2.75500000
endheader

                time	   L_ground_force_vx	   L_ground_force_vy	   L_ground_force_vz	   L_ground_force_px	   L_ground_force_py	   L_ground_force_pz	   R_ground_force_vx	   R_ground_force_vy	   R_ground_force_vz	   R_ground_force_px	   R_ground_force_py	   R_ground_force_pz	   L_ground_torque_x	   L_ground_torque_y	   L_ground_torque_z	   R_ground_torque_x	   R_ground_torque_y	   R_ground_torque_z	
          2.73600000	         26.90693513	        727.27905486	         27.94946442	         -0.18583974	          0.00000000	         -0.02216527	          0.00000000	          0.00000000	          0.00000000	          0.00000000	          0.00000000	          0.00000000	          0.00000000	         -0.43118703	          0.00000000	          0.00000000	          0.00000000	          0.00000000	
          2.73700000	         27.30400782	        728.63261232	         28.05848247	         -0.18548559	          0.00000000	         -0.02214325	          0.00000000	          0.00000000	          0.00000000	          0.00000000	          0.00000000	          0.00000000	          0.00000000	         -0.47270727	          0.00000000	          0.00000000	          0.00000000	          0.00000000	
          2.73800000	         27.65321579	        729.96223500	         28.16308644	         -0.18513993	          0.00000000	         -0.02214565	          0.00000000	          0.00000000	          0.00000000	          0.00000000	          0.00000000	          0.00000000	          0.00000000	         -0.49286714	          0.00000000	          0.00000000	          0.00000000	          0.00000000	
          2.73900000	         27.99643493	        731.32065601	         28.28586013	         -0.18478952	          0.00000000	         -0.02214833	          0.00000000	          0.00000000	          0.00000000	          0.00000000	          0.00000000	          0.00000000	          0.00000000	         -0.49482186	          0.00000000	          0.00000000	          0.00000000	          0.00000000	
          2.74000000	         28.39226373	        732.76467555	         28.45459316	         -0.18442057	          0.00000000	         -0.02213066	          0.00000000	          0.00000000	          0.00000000	          0.00000000	          0.00000000	          0.00000000	          0.00000000	         -0.48279405	          0.00000000	          0.00000000	          0.00000000	          0.00000000	
          2.74100000	         28.90336666	        734.30926893	         28.70060336	         -0.18403307	          0.00000000	         -0.02209001	          0.00000000	          0.00000000	          0.00000000	          0.00000000	          0.00000000	          0.00000000	          0.00000000	         -0.45814442	          0.00000000	          0.00000000	          0.00000000	          0.00000000	
          2.74200000	         29.55740665	        735.91821689	         29.05178212	         -0.18363947	          0.00000000	         -0.02204168	          0.00000000	          0.00000000	          0.00000000	          0.00000000	          0.00000000	          0.00000000	          0.00000000	         -0.42263111	          0.00000000	          0.00000000	          0.00000000	          0.00000000	
          2.74300000	         30.33017543	        737.54687358	         29.51410714	         -0.18324974	          0.00000000	         -0.02201584	          0.00000000	          0.00000000	          0.00000000	          0.00000000	          0.00000000	          0.00000000	          0.00000000	         -0.38128805	          0.00000000	          0.00000000	          0.00000000	          0.00000000	
          2.74400000	         31.16475799	        739.15079885	         30.04954666	         -0.18285718	          0.00000000	         -0.02203781	          0.00000000	          0.00000000	          0.00000000	          0.00000000	          0.00000000	          0.00000000	          0.00000000	         -0.34157129	          0.00000000	          0.00000000	          0.00000000	          0.00000000	
          2.74500000	         31.99576285	        740.67433866	         30.59116714	         -0.18244800	          0.00000000	         -0.02209545	          0.00000000	          0.00000000	          0.00000000	          0.00000000	          0.00000000	          0.00000000	          0.00000000	         -0.30810301	          0.00000000	          0.00000000	          0.00000000	          0.00000000	
          2.74600000	         32.77246521	        742.10730202	         31.08512170	         -0.18202793	          0.00000000	         -0.02214173	          0.00000000	          0.00000000	          0.00000000	          0.00000000	          0.00000000	          0.00000000	          0.00000000	         -0.28149281	          0.00000000	          0.00000000	          0.00000000	          0.00000000	
          2.74700000	         33.47358071	        743.51520553	         31.49675567	         -0.18162723	          0.00000000	         -0.02213673	          0.00000000	          0.00000000	          0.00000000	          0.00000000	          0.00000000	          0.00000000	          0.00000000	         -0.26568204	          0.00000000	          0.00000000	          0.00000000	          0.00000000	
          2.74800000	         34.09365855	        744.96988592	         31.80369171	         -0.18127644	          0.00000000	         -0.02208039	          0.00000000	          0.00000000	          0.00000000	          0.00000000	          0.00000000	          0.00000000	          0.00000000	         -0.26714465	          0.00000000	          0.00000000	          0.00000000	          0.00000000	
          2.74900000	         34.62690180	        746.49966128	         32.01625474	         -0.18098745	          0.00000000	         -0.02200980	          0.00000000	          0.00000000	          0.00000000	          0.00000000	          0.00000000	          0.00000000	          0.00000000	         -0.28430515	          0.00000000	          0.00000000	          0.00000000	          0.00000000	
          2.75000000	         35.08027108	        748.10043626	         32.17176600	         -0.18075061	          0.00000000	         -0.02196778	          0.00000000	          0.00000000	          0.00000000	          0.00000000	          0.00000000	          0.00000000	          0.00000000	         -0.30634311	          0.00000000	          0.00000000	          0.00000000	          0.00000000	
          2.75100000	         35.48491039	        749.75210665	         32.29645460	         -0.18053221	          0.00000000	         -0.02196631	          0.00000000	          0.00000000	          0.00000000	          0.00000000	          0.00000000	          0.00000000	          0.00000000	         -0.32092055	          0.00000000	          0.00000000	          0.00000000	          0.00000000	
          2.75200000	         35.87691223	        751.44389845	         32.39545262	         -0.18028669	          0.00000000	         -0.02197777	          0.00000000	          0.00000000	          0.00000000	          0.00000000	          0.00000000	          0.00000000	          0.00000000	         -0.31938401	          0.00000000	          0.00000000	          0.00000000	          0.00000000	
          2.75300000	         36.27853346	        753.17945054	         32.46713031	         -0.17998893	          0.00000000	         -0.02196574	          0.00000000	          0.00000000	          0.00000000	          0.00000000	          0.00000000	          0.00000000	          0.00000000	         -0.29926624	          0.00000000	          0.00000000	          0.00000000	          0.00000000	
          2.75400000	         36.70507403	        754.93259306	         32.51448509	         -0.17964562	          0.00000000	         -0.02191947	          0.00000000	          0.00000000	          0.00000000	          0.00000000	          0.00000000	          0.00000000	          0.00000000	         -0.26611088	          0.00000000	          0.00000000	          0.00000000	          0.00000000	
          2.75500000	         37.17520634	        756.64248296	         32.54838244	         -0.17927644	          0.00000000	         -0.02185795	          0.00000000	          0.00000000	          0.00000000	          0.00000000	          0.00000000	          0.00000000	          0.00000000	         -0.23385190	          0.00000000	          0.00000000	          0.00000000	          0.00000000	
